# xmcd CD database file
# Copyright (C) 1993-1998 Ti Kan
# 
# Track frame offsets:
#     150
#     12040
#     24840
#     37457
#     50185
#     62430
#     76532
#     88577
#     101842
#     113505
#     127562
#     141617
#     155465
#     165934
#     176437
#     189995
# 
# Disc length: 2681 seconds
# 
# Revision: 1
# Processed by: cddbd v1.4b41PL1 Copyright (c) Steve Scherf et al.
# Submitted via: DiscPlay 4.0.4
# 
DISCID=bc0a7710
DTITLE=Otis Rush - Double Trouble
DYEAR=1900
DGENRE=
TTITLE0=All Your Love
TTITLE1=Three Times A Fool
TTITLE2=She's A Good  'Un
TTITLE3=It Takes Times
TTITLE4=Double Trouble
TTITLE5=My Love Will Never Die
TTITLE6=My Baby Is A Good 'Un
TTITLE7=Checking  On My Baby
TTITLE8=Jump Sister Bessie
TTITLE9=I Can't Quit You Baby
TTITLE10=If You Were Mine
TTITLE11=Groaning The Blues
TTITLE12=Keep On Loving Me Baby
TTITLE13=Sit Down Baby
TTITLE14=Love That Woman
TTITLE15=Violent Love
EXTD=
EXTT0=
EXTT1=
EXTT2=
EXTT3=
EXTT4=
EXTT5=
EXTT6=
EXTT7=
EXTT8=
EXTT9=
EXTT10=
EXTT11=
EXTT12=
EXTT13=
EXTT14=
EXTT15=
PLAYORDER=
